<?xml version="1.0" encoding="utf-8"?>
<!-- Generator: Adobe Illustrator 16.0.0, SVG Export Plug-In . SVG Version: 6.00 Build 0)  -->
<!DOCTYPE svg PUBLIC "-//W3C//DTD SVG 1.1//EN" "http://www.w3.org/Graphics/SVG/1.1/DTD/svg11.dtd">
<svg version="1.1" id="Layer_1" xmlns="http://www.w3.org/2000/svg" xmlns:xlink="http://www.w3.org/1999/xlink" x="0px" y="0px"
	 width="1230px" height="1215px" viewBox="0 0 1230 1215" enable-background="new 0 0 1230 1215" xml:space="preserve">
<g>
	<g>
		<polygon fill="#DEE8F6" points="648.452,1090.435 701.491,1059.813 754.528,1090.435 701.46,1121.073 		"/>
		<polygon fill="#E2EBF7" points="696.809,1037.02 726.775,1019.719 756.741,1037.02 726.758,1054.33 		"/>
		<polygon fill="#FEF5F7" points="143.185,898.497 196.224,867.876 249.261,898.497 196.192,929.136 		"/>
		<polygon fill="#E2EBF7" points="215.247,835.762 245.214,818.461 275.18,835.762 245.196,853.074 		"/>
		<polygon fill="#FEF5F7" points="653.782,613.247 706.821,582.626 759.857,613.247 706.789,643.886 		"/>
		<polygon fill="#DEE8F6" points="702.138,559.832 732.104,542.531 762.07,559.832 732.087,577.144 		"/>
		<polygon fill="#E2EBF7" points="874.234,706.551 927.273,675.929 980.311,706.551 927.242,737.189 		"/>
		<polygon fill="#E0E4EA" points="1026.127,799.391 1056.094,782.09 1086.06,799.391 1056.076,816.703 		"/>
		<polygon fill="#FEF5F7" points="882.333,944.681 935.372,914.06 988.408,944.681 935.34,975.319 		"/>
		<path fill="#201D1E" d="M706.797,825.955c-0.635,0.407-1.231,0.793-1.838,1.218c0.423-0.315,0.91-0.637,1.397-0.957
			L706.797,825.955z"/>
		<path fill="#201D1E" d="M709.056,824.552c-0.743,0.473-1.515,0.93-2.259,1.403c0.449-0.299,0.9-0.599,1.378-0.882
			c0.184-0.108,0.377-0.255,0.56-0.363C708.845,824.645,708.919,824.601,709.056,824.552"/>
		<path fill="#DEE8F6" d="M709.615,671.941h0.054c27.423-0.323,53.929,1.917,78.787,6.667l12.174-13.145
			c-26.722-5.073-55.278-7.504-84.969-7.126l0.054-0.026c-81.217,0.944-164.297,22.673-229.049,59.597l-0.432,0.27
			c-0.514,0.271-0.999,0.54-1.485,0.811c-1.079,0.62-2.187,1.241-3.238,1.862c-0.378,0.216-0.784,0.459-1.161,0.701l-0.485,0.298
			c-0.216,0.134-0.433,0.27-0.621,0.404c-0.756,0.485-1.512,0.918-2.269,1.403c-0.323,0.19-0.621,0.405-0.916,0.594
			c-0.297,0.189-0.594,0.405-0.918,0.621c0.216-0.162,0.432-0.324,0.675-0.486c-61.973,38.247-98.896,87.561-101.353,135.983
			c-0.918,17.733,2.807,34.846,11.039,50.905l22.052-7.126c-7.665-14.898-11.093-30.824-10.257-47.262l0.027-0.026
			c0.054-1.458,0.162-2.915,0.324-4.4l44.076-26.101c5.209,12.956,13.388,25.831,24.238,38.382l20.946-8.691
			c-11.147-12.955-19.3-26.235-24.212-39.461c-0.27-0.729-0.514-1.458-0.756-2.213l78.815-46.669l34.818,21.08l18.381-10.877
			l-34.818-21.08l78.761-46.642c1.241,0.135,2.455,0.297,3.698,0.486c22.024,3.077,44.104,8.097,65.616,14.926l14.764-12.442
			c-20.837-6.641-42.241-11.688-63.834-14.954l44.104-26.101C704.729,672.022,707.186,671.969,709.615,671.941 M401.184,834.106
			c5.83-20.433,18.03-40.622,35.791-59.517c-3.185,12.038-3.131,24.887,0.216,38.22L401.184,834.106z M458.27,800.286
			c-4.074-25.831,5.777-48.854,28.207-65.481l40.703,24.725L458.27,800.286z M545.561,748.624l-40.783-24.696
			c28.044-13.227,66.533-18.813,109.611-16.061L545.561,748.624z M635.496,695.37c-22.188-2.159-43.727-2.321-63.889-0.54
			c31.796-10.445,65.67-17.544,99.949-20.81L635.496,695.37z"/>
		<polygon fill="#DEE8F6" points="502.92,918.444 513.107,922.592 507.919,916.493 480.281,878.98 490.043,873.2 551.974,890.407 
			562.178,893.698 555.364,887.337 524.873,852.576 536.504,845.689 579.714,897.313 569.167,903.558 504.102,885.823 
			497.801,883.667 501.329,887.465 529.573,927.002 519.03,933.245 433.336,906.777 444.905,899.927 		"/>
		<polygon fill="#DEE8F6" points="637.099,838.994 647.287,843.141 642.099,837.043 614.46,799.53 624.223,793.75 686.153,810.957 
			696.357,814.248 689.544,807.887 659.053,773.126 670.684,766.24 713.894,817.862 703.346,824.107 638.281,806.373 
			631.98,804.218 635.509,808.016 663.753,847.552 653.209,853.795 567.515,827.327 579.085,820.478 		"/>
		<polygon fill="#DEE8F6" points="771.278,759.544 781.467,763.691 776.277,757.593 748.64,720.08 758.401,714.3 820.332,731.507 
			830.537,734.798 823.723,728.437 793.232,693.676 804.862,686.79 848.072,738.412 837.525,744.657 772.46,726.923 
			766.159,724.768 769.688,728.564 797.933,768.102 787.389,774.345 701.694,747.878 713.264,741.027 		"/>
		<path fill="#DEE8F6" d="M913.454,751.972l-22.052,7.125c7.665,14.899,11.093,30.824,10.256,47.263h-0.027
			c-0.053,1.484-0.161,2.942-0.323,4.427l-44.077,26.101c-5.209-12.956-13.389-25.831-24.238-38.382l-20.946,8.69
			c11.148,12.956,19.3,26.236,24.212,39.462c0.271,0.729,0.514,1.458,0.756,2.213l-78.814,46.669l-34.818-21.081l-18.382,10.878
			l34.819,21.053l-78.762,46.669c-1.241-0.162-2.456-0.324-3.697-0.486c-22.025-3.077-44.104-8.098-65.616-14.926l-14.765,12.442
			c20.838,6.641,42.242,11.661,63.835,14.927l-44.104,26.128c-2.483,0.08-4.939,0.135-7.37,0.135l-0.053,0.026
			c-27.424,0.324-53.929-1.916-78.788-6.667l-12.173,13.118c26.721,5.102,55.278,7.531,84.969,7.153l-0.054,0.026
			c81.217-0.944,164.297-22.673,229.049-59.597l0.432-0.27c0.513-0.271,0.999-0.54,1.484-0.81c1.08-0.621,2.187-1.242,3.239-1.863
			c0.378-0.216,0.782-0.459,1.16-0.729l0.486-0.27c0.216-0.136,0.432-0.271,0.621-0.405c0.756-0.486,1.512-0.944,2.267-1.403
			c0.136-0.108,0.297-0.189,0.433-0.271c62.403-38.327,99.625-87.83,102.081-136.441
			C925.411,785.144,921.687,768.031,913.454,751.972 M638.735,989.226l36.062-21.35c22.186,2.159,43.725,2.321,63.888,0.539
			C706.889,978.861,673.015,985.96,638.735,989.226 M695.903,955.352l68.828-40.73l40.784,24.671
			C777.471,952.545,738.981,958.133,695.903,955.352 M823.815,928.441l-40.703-24.751l68.909-40.73
			C856.097,888.791,846.272,911.814,823.815,928.441 M873.317,888.656c3.186-12.064,3.131-24.887-0.216-38.221l36.007-21.296
			C903.278,849.572,891.078,869.762,873.317,888.656"/>
		<polygon fill="#1F4068" points="649.463,1114.627 648.788,1114.237 412.202,977.643 413.552,975.308 649.463,1111.512 
			930.152,949.486 823.873,888.126 1036.404,765.434 789.802,623.08 789.836,560.938 792.535,560.941 792.501,621.52 
			1041.803,765.434 829.271,888.126 935.55,949.486 		"/>
		<path fill="#4B4B5B" d="M1005.283,795.412v0.047c0,2.742-1.372,5.485-4.091,7.069l-18.82,10.853l-30.997,17.922l-21.303,12.295
			c-6.006,3.476-13.43,3.476-19.436,0l-21.207-12.247l-31.093-17.946l-18.797-10.853c-2.742-1.561-4.09-4.326-4.09-7.093v-0.047
			c0.022-2.72,1.371-5.438,4.09-7.021l71.404-41.235c5.84-3.382,13.028-3.382,18.844,0l71.404,41.211
			C1003.887,789.927,1005.259,792.669,1005.283,795.412"/>
		<path fill="#E7546C" d="M1005.283,795.459v35.797c0.047,2.767-1.324,5.58-4.091,7.164l-71.12,41.045
			c-6.006,3.476-13.43,3.476-19.436,0L839.54,838.42c-2.719-1.584-4.067-4.304-4.09-7.022v-35.938c0,2.767,1.348,5.532,4.09,7.093
			l18.797,10.853l31.093,17.946l21.207,12.247c6.006,3.476,13.43,3.476,19.436,0l21.303-12.295l30.997-17.922l18.82-10.853
			C1003.911,800.944,1005.283,798.201,1005.283,795.459"/>
		<path fill="#335176" d="M856.583,783.148v12.806c0,2.583-3.083,4.684-6.896,4.684c-3.81,0-6.901-2.101-6.901-4.684v-12.806
			c0,2.583,3.092,4.684,6.901,4.684C853.5,787.832,856.583,785.731,856.583,783.148"/>
		<path fill="#A1AFC0" d="M856.583,783.148c0,2.583-3.083,4.684-6.896,4.684c-3.81,0-6.901-2.101-6.901-4.684
			s3.092-4.684,6.901-4.684C853.5,778.465,856.583,780.565,856.583,783.148"/>
		<path fill="#335176" d="M927.272,821.276v12.806c0,2.583-3.083,4.684-6.896,4.684c-3.81,0-6.901-2.101-6.901-4.684v-12.806
			c0,2.583,3.092,4.685,6.901,4.685C924.189,825.961,927.272,823.859,927.272,821.276"/>
		<path fill="#A1AFC0" d="M927.272,821.276c0,2.583-3.083,4.685-6.896,4.685c-3.81,0-6.901-2.102-6.901-4.685
			s3.092-4.684,6.901-4.684C924.189,816.593,927.272,818.693,927.272,821.276"/>
		<path fill="#335176" d="M927.272,743.779v12.805c0,2.584-3.083,4.684-6.896,4.684c-3.81,0-6.901-2.1-6.901-4.684v-12.805
			c0,2.583,3.092,4.683,6.901,4.683C924.189,748.462,927.272,746.362,927.272,743.779"/>
		<path fill="#A1AFC0" d="M927.272,743.779c0,2.583-3.083,4.683-6.896,4.683c-3.81,0-6.901-2.1-6.901-4.683
			c0-2.584,3.092-4.684,6.901-4.684C924.189,739.096,927.272,741.195,927.272,743.779"/>
		<path fill="#335176" d="M997.962,781.906v12.806c0,2.583-3.083,4.684-6.894,4.684c-3.812,0-6.902-2.101-6.902-4.684v-12.806
			c0,2.584,3.091,4.684,6.902,4.684C994.879,786.59,997.962,784.49,997.962,781.906"/>
		<path fill="#A1AFC0" d="M997.962,781.906c0,2.584-3.083,4.684-6.894,4.684c-3.812,0-6.902-2.1-6.902-4.684
			c0-2.583,3.091-4.683,6.902-4.683C994.879,777.224,997.962,779.323,997.962,781.906"/>
		<path fill="#FBE2E6" d="M860.692,833.642c0,2.83-1.062,5.124-2.371,5.124s-2.371-2.294-2.371-5.124s1.062-5.125,2.371-5.125
			S860.692,830.812,860.692,833.642"/>
		<path fill="#FBE2E6" d="M876.206,841.6c0,2.83-1.062,5.125-2.371,5.125s-2.371-2.295-2.371-5.125s1.062-5.124,2.371-5.124
			S876.206,838.77,876.206,841.6"/>
		<path fill="#FBE2E6" d="M891.72,850.977c0,2.83-1.062,5.124-2.371,5.124s-2.371-2.294-2.371-5.124s1.062-5.124,2.371-5.124
			S891.72,848.146,891.72,850.977"/>
		<path fill="#FBE2E6" d="M980.052,832.933c0,2.83,1.062,5.124,2.371,5.124s2.371-2.294,2.371-5.124s-1.062-5.125-2.371-5.125
			S980.052,830.103,980.052,832.933"/>
		<path fill="#FBE2E6" d="M964.538,840.891c0,2.83,1.062,5.125,2.371,5.125s2.371-2.295,2.371-5.125s-1.062-5.124-2.371-5.124
			S964.538,838.061,964.538,840.891"/>
		<path fill="#FBE2E6" d="M949.024,850.268c0,2.83,1.062,5.124,2.371,5.124s2.371-2.294,2.371-5.124s-1.062-5.124-2.371-5.124
			S949.024,847.438,949.024,850.268"/>
		<path fill="#4B4B5B" d="M901.646,988.45v0.042c0,2.432-1.216,4.864-3.627,6.269l-16.688,9.622l-27.483,15.891l-18.89,10.901
			c-5.323,3.082-11.906,3.082-17.231,0l-18.804-10.859l-27.567-15.911l-16.667-9.623c-2.432-1.383-3.626-3.836-3.626-6.289v-0.042
			c0.021-2.41,1.216-4.821,3.626-6.226L818,945.663c5.179-2.997,11.552-2.997,16.708,0l63.312,36.54
			C900.409,983.587,901.625,986.019,901.646,988.45"/>
		<path fill="#E7546C" d="M901.646,988.492v31.739c0.042,2.453-1.175,4.949-3.627,6.353l-63.061,36.393
			c-5.323,3.082-11.906,3.082-17.231,0l-63.038-36.393c-2.41-1.403-3.605-3.815-3.626-6.227v-31.865
			c0,2.453,1.194,4.906,3.626,6.289l16.667,9.623l27.567,15.911l18.804,10.859c5.325,3.082,11.908,3.082,17.231,0l18.89-10.901
			l27.483-15.891l16.688-9.622C900.431,993.356,901.646,990.924,901.646,988.492"/>
		<path fill="#335176" d="M769.801,977.577v11.354c0,2.291-2.733,4.153-6.112,4.153c-3.38,0-6.12-1.862-6.12-4.153v-11.354
			c0,2.291,2.74,4.153,6.12,4.153C767.067,981.73,769.801,979.868,769.801,977.577"/>
		<path fill="#A1AFC0" d="M769.801,977.577c0,2.291-2.733,4.153-6.112,4.153c-3.38,0-6.12-1.862-6.12-4.153
			c0-2.29,2.74-4.152,6.12-4.152C767.067,973.425,769.801,975.287,769.801,977.577"/>
		<path fill="#335176" d="M832.478,1011.384v11.354c0,2.291-2.733,4.152-6.112,4.152s-6.12-1.861-6.12-4.152v-11.354
			c0,2.29,2.741,4.152,6.12,4.152S832.478,1013.674,832.478,1011.384"/>
		<path fill="#A1AFC0" d="M832.478,1011.384c0,2.29-2.733,4.152-6.112,4.152s-6.12-1.862-6.12-4.152s2.741-4.153,6.12-4.153
			S832.478,1009.094,832.478,1011.384"/>
		<path fill="#335176" d="M832.478,942.67v11.354c0,2.291-2.733,4.153-6.112,4.153s-6.12-1.862-6.12-4.153V942.67
			c0,2.291,2.741,4.153,6.12,4.153S832.478,944.961,832.478,942.67"/>
		<path fill="#A1AFC0" d="M832.478,942.67c0,2.291-2.733,4.153-6.112,4.153s-6.12-1.862-6.12-4.153c0-2.29,2.741-4.152,6.12-4.152
			S832.478,940.38,832.478,942.67"/>
		<path fill="#335176" d="M895.155,976.477v11.354c0,2.291-2.733,4.152-6.113,4.152c-3.379,0-6.119-1.861-6.119-4.152v-11.354
			c0,2.29,2.74,4.152,6.119,4.152C892.422,980.629,895.155,978.767,895.155,976.477"/>
		<path fill="#A1AFC0" d="M895.155,976.477c0,2.29-2.733,4.152-6.113,4.152c-3.379,0-6.119-1.862-6.119-4.152
			c0-2.291,2.74-4.153,6.119-4.153C892.422,972.323,895.155,974.186,895.155,976.477"/>
		<path fill="#FBE2E6" d="M773.444,1022.347c0,2.51-0.941,4.544-2.103,4.544s-2.103-2.034-2.103-4.544
			c0-2.509,0.941-4.543,2.103-4.543S773.444,1019.838,773.444,1022.347"/>
		<path fill="#FBE2E6" d="M787.2,1029.403c0,2.51-0.941,4.544-2.103,4.544s-2.103-2.034-2.103-4.544
			c0-2.509,0.941-4.543,2.103-4.543S787.2,1026.895,787.2,1029.403"/>
		<path fill="#E0E4EA" d="M883.708,1077.839c0,2.51-0.941,4.544-2.103,4.544s-2.102-2.034-2.102-4.544
			c0-2.509,0.94-4.543,2.102-4.543S883.708,1075.33,883.708,1077.839"/>
		<path fill="#FBE2E6" d="M879.275,1021.719c0,2.509,0.941,4.543,2.102,4.543c1.161,0,2.103-2.034,2.103-4.543
			c0-2.51-0.941-4.544-2.103-4.544C880.217,1017.175,879.275,1019.209,879.275,1021.719"/>
		<path fill="#FBE2E6" d="M865.52,1028.775c0,2.509,0.941,4.543,2.103,4.543s2.103-2.034,2.103-4.543
			c0-2.51-0.941-4.544-2.103-4.544S865.52,1026.266,865.52,1028.775"/>
		<path fill="#FBE2E6" d="M851.764,1037.089c0,2.51,0.941,4.544,2.103,4.544s2.103-2.034,2.103-4.544s-0.941-4.544-2.103-4.544
			S851.764,1034.579,851.764,1037.089"/>
		<path fill="#FBE2E6" d="M798.849,1037.089c0,2.51-0.941,4.544-2.103,4.544s-2.103-2.034-2.103-4.544s0.941-4.544,2.103-4.544
			S798.849,1034.579,798.849,1037.089"/>
		<path fill="#4B4B5B" d="M428.005,927.482v23.896c0,28.261-38.123,51.168-85.117,51.168c-46.995,0-85.096-22.907-85.096-51.168
			v-23.896c0,4.108,0.8,8.113,2.339,11.948c8.957,22.507,42.611,39.219,82.757,39.219c40.146,0,73.821-16.712,82.777-39.219
			C427.204,935.596,428.005,931.591,428.005,927.482"/>
		<path fill="#DEE8F6" d="M428.005,927.482c0,4.108-0.801,8.113-2.34,11.948c-8.956,22.507-42.632,39.219-82.777,39.219
			c-40.146,0-73.8-16.712-82.757-39.219c-1.539-3.835-2.339-7.84-2.339-11.948c0-28.261,38.101-51.168,85.096-51.168
			C389.882,876.314,428.005,899.222,428.005,927.482"/>
		<path fill="#4B4B5B" d="M403.954,906.038v17.136c0,1.109-0.084,2.219-0.251,3.285c-2.762,18.747-28.938,33.415-60.804,33.415
			c-31.886,0-58.042-14.668-60.803-33.415c-0.167-1.066-0.251-2.176-0.251-3.285v-17.136c0,2.95,0.565,5.816,1.674,8.558
			c0.439,1.131,0.983,2.238,1.59,3.306c8.223,14.458,30.988,24.836,57.791,24.836c26.782,0,49.568-10.378,57.791-24.836
			c0.606-1.067,1.15-2.175,1.59-3.306C403.368,911.854,403.954,908.988,403.954,906.038"/>
		<path fill="#DEE8F6" d="M403.939,906.042c0,2.941-0.566,5.803-1.674,8.556c-6.424,16.141-30.581,28.152-59.381,28.152
			c-28.799,0-52.929-12.012-59.354-28.152c-1.106-2.753-1.673-5.614-1.673-8.556c0-8.151,4.426-15.683,11.93-21.81
			c3.401-2.78,7.45-5.236,12.011-7.342c10.257-4.75,23.132-7.558,37.086-7.558c3.887,0,7.666,0.216,11.337,0.648
			c11.714,1.295,22.214,4.615,30.527,9.339C396.571,886.014,403.939,895.515,403.939,906.042"/>
		<path fill="#E0E4EA" d="M317.787,988.354c0,3.136-1.303,5.679-2.91,5.679c-1.607,0-2.91-2.543-2.91-5.679
			c0-3.137,1.303-5.679,2.91-5.679C316.484,982.676,317.787,985.218,317.787,988.354"/>
		<path fill="#E0E4EA" d="M346.236,991.373c0,3.137-1.798,5.68-4.018,5.68c-2.218,0-4.016-2.543-4.016-5.68
			c0-3.136,1.798-5.679,4.016-5.679C344.438,985.694,346.236,988.237,346.236,991.373"/>
		<path fill="#E0E4EA" d="M373.83,988.517c0,3.137-1.537,5.679-3.434,5.679c-1.895,0-3.432-2.542-3.432-5.679
			s1.537-5.679,3.432-5.679C372.293,982.838,373.83,985.38,373.83,988.517"/>
		<path fill="#424252" d="M403.954,929.765c0,2.93-0.586,5.817-1.674,8.558c-6.424,16.153-30.59,28.143-59.381,28.143
			c-28.812,0-52.957-11.989-59.38-28.143c-1.109-2.74-1.674-5.628-1.674-8.558c0-1.108,0.084-2.218,0.251-3.306
			c2.762,18.747,28.917,33.415,60.803,33.415c31.866,0,58.042-14.668,60.804-33.415C403.87,927.547,403.954,928.656,403.954,929.765
			"/>
		<path fill="#424252" d="M358.123,777.423c-2.105-1.483-4.399-2.591-6.856-3.319c-11.849-3.509-27.153,1.808-39.73,15.25
			c-17.95,19.164-23.51,47.612-12.443,63.564c0.108,0.135,0.189,0.27,0.297,0.405c-0.27-0.162-0.514-0.352-0.783-0.54
			c-1.917-1.512-3.644-3.347-5.156-5.506c-11.066-15.952-5.506-44.401,12.443-63.565c12.579-13.441,27.882-18.759,39.732-15.25
			C350.538,769.893,354.855,772.889,358.123,777.423"/>
		<path fill="#424252" d="M396.828,817.208c-0.647-0.458-1.431-0.755-2.321-0.836l-1.106-0.081l-2.321-0.189l-1.512-0.135
			l-20.81-1.7c0.217-1.107,0.404-2.187,0.539-3.267c0.081-0.62,0.162-1.241,0.216-1.862l15.926,1.323l3.428,0.27
			c1.053,0.108,1.942,0.486,2.672,1.106l0.324,0.324l0.135,0.162L396.828,817.208z"/>
		<path fill="#E7546C" d="M397.962,818.369c-0.297-0.432-0.647-0.783-1.053-1.106l-0.081-0.055
			c-0.647-0.458-1.432-0.755-2.321-0.836l-1.106-0.081l-2.321-0.189l-1.512-0.135l-20.81-1.7c0.216-1.107,0.404-2.187,0.539-3.267
			c0.081-0.62,0.162-1.241,0.216-1.862c1.026-9.717-0.675-18.813-5.425-25.642c-1.7-2.456-3.725-4.48-5.965-6.073
			c-2.105-1.483-4.399-2.591-6.856-3.319c-11.849-3.509-27.153,1.808-39.73,15.25c-17.95,19.164-23.51,47.612-12.443,63.564
			c0.108,0.135,0.189,0.27,0.297,0.405c1.43,1.997,3.076,3.697,4.858,5.101c12.227,9.447,31.903,5.264,47.424-11.309
			c4.427-4.724,8.098-10.015,10.958-15.548l26.29,2.187c3.752,0.324,8.044-3.319,9.609-8.124
			C399.446,822.742,399.177,820.097,397.962,818.369 M357.205,813.295c-0.756,5.749-2.942,11.768-6.37,17.274
			c-1.592,2.591-3.455,5.047-5.587,7.314c-11.013,11.769-25.129,14.359-33.308,6.775c-0.89-0.811-1.727-1.755-2.456-2.835
			c-0.189-0.27-0.351-0.539-0.513-0.81c-6.829-10.958-2.942-29.718,8.961-42.431c8.098-8.637,17.868-12.335,25.723-10.688
			c1.755,0.378,3.428,0.999,4.939,1.917c1.943,1.16,3.671,2.754,5.102,4.804C357.124,799.529,358.204,806.223,357.205,813.295"/>
		<path fill="#B7C2CF" d="M354.222,869.981c-0.945,2.213-2.052,4.399-3.374,6.505c-1.593,2.591-3.455,5.047-5.588,7.314
			c-11.012,11.769-25.129,14.359-33.307,6.774c-0.891-0.81-1.727-1.754-2.456-2.834c-0.189-0.27-0.351-0.54-0.513-0.81
			c-1.808-2.887-2.834-6.316-3.185-10.041c-4.561,2.105-8.61,4.562-12.011,7.342c0.675,5.452,2.429,10.445,5.317,14.603
			c0.108,0.135,0.189,0.27,0.297,0.405c1.431,1.997,3.077,3.697,4.859,5.101c12.227,9.447,31.903,5.264,47.424-11.309
			c4.426-4.724,8.097-10.015,10.958-15.548l22.106,1.836C376.436,874.597,365.936,871.276,354.222,869.981"/>
		<path fill="#DEE8F6" d="M649.478,518.55c0,13.577-7.233,26.127-18.976,32.902L208.114,795.32c-4.184,2.429-8.88,2.158-12.578,0.08
			l-0.162-0.08c-2.456-1.404-4.454-3.617-5.533-6.371c-0.567-1.43-0.864-2.996-0.864-4.669V373.39
			c0-10.472,5.587-20.135,14.656-25.372l420.58-242.842l6.452-3.724c0.89-0.513,1.808-0.892,2.725-1.188
			c2.941-0.863,5.938-0.594,8.557,0.567c4.292,1.889,7.504,6.127,7.504,11.471L649.478,518.55z"/>
		<path fill="#B7C2CF" d="M306.896,531.137L306.896,531.137c0.007,12.611,13.66,20.489,24.582,14.184l178.969-103.327
			c13.086-7.555,21.146-21.52,21.14-36.63c-0.004-12.206-13.218-19.832-23.789-13.729L327.238,495.881
			C314.644,503.152,306.888,516.594,306.896,531.137"/>
		<path fill="#EA6B80" d="M410.674,541.674l0.014,15.434c0.004,3.981,4.314,6.465,7.76,4.474l38.973-22.525
			c3.559-2.056,5.751-5.852,5.755-9.961l0.015-16.806c0.003-3.043-3.29-4.947-5.925-3.425l-41.481,23.949
			C412.618,534.641,410.67,538.019,410.674,541.674"/>
		<path fill="#4B4B5B" d="M458.945,370.635l-25.749-2.122c2.288-11.57,0.917-22.735-4.659-30.761
			c-11.08-15.951-34.607-13.341-52.569,5.847c-17.947,19.171-23.512,47.636-12.432,63.587c11.091,15.965,34.617,13.356,52.563-5.815
			c4.426-4.726,8.111-10.019,10.97-15.552l26.285,2.189c3.764,0.326,8.054-3.311,9.606-8.114c0.93-2.885,0.639-5.539-0.563-7.271
			C461.612,371.493,460.438,370.754,458.945,370.635 M415.283,384.835c-1.602,2.58-3.465,5.031-5.595,7.306
			c-12.218,13.05-28.224,14.81-35.767,3.952c-7.535-10.844-3.76-30.214,8.457-43.264c12.201-13.034,28.224-14.811,35.757-3.967
			c3.426,4.931,4.508,11.623,3.519,18.686C420.881,373.309,418.7,379.319,415.283,384.835"/>
		<path fill="#B7C2CF" d="M418.136,348.862c3.426,4.931,4.508,11.623,3.519,18.686c-0.773,5.76-2.955,11.771-6.371,17.287
			c-1.602,2.579-3.465,5.03-5.595,7.305c-12.218,13.051-28.224,14.811-35.767,3.952c-7.534-10.844-3.76-30.213,8.457-43.264
			C394.58,339.795,410.603,338.019,418.136,348.862"/>
		<path fill="#E9ECF0" d="M414.087,362.941c-0.306,0.327-0.65,0.607-1.026,0.822c-1.583,0.907-3.092,0.288-3.37-1.382
			c-0.009-0.053-1.295-6.926-7.338-8.654c-5.95-1.704-12.202,3.88-12.265,3.936c-1.453,1.317-3.188,1.273-3.874-0.099
			c-0.688-1.368-0.068-3.547,1.387-4.865c0.368-0.334,9.136-8.161,17.715-5.705c8.404,2.406,10.044,11.709,10.109,12.103
			C415.637,360.372,415.07,361.89,414.087,362.941"/>
		<path fill="#E9ECF0" d="M416.565,366.048c0.8,1.152,0.397,3.208-0.897,4.592c-1.297,1.385-2.996,1.574-3.796,0.422
			c-0.801-1.153-0.398-3.209,0.897-4.593C414.065,365.085,415.766,364.896,416.565,366.048"/>
		<polygon fill="#335176" points="224.4,739.626 224.429,752.053 267.431,727.209 267.431,714.751 		"/>
		<polygon fill="#335176" points="278.191,708.551 278.22,720.977 321.222,696.134 321.222,683.676 		"/>
		<path fill="#4B4B5B" d="M586.987,168.982c-0.216,4.529-2.805,8.085-5.783,7.943c-2.978-0.141-5.217-3.928-5.001-8.457
			c0.216-4.528,2.805-8.085,5.782-7.943C584.964,160.667,587.203,164.453,586.987,168.982"/>
		<path fill="#EA6B80" d="M609.036,156.241c-0.216,4.529-2.805,8.085-5.782,7.943c-2.979-0.142-5.218-3.928-5.002-8.457
			c0.216-4.528,2.805-8.085,5.783-7.943C607.013,147.926,609.252,151.712,609.036,156.241"/>
		<path fill="#335176" d="M629.862,145.278c-0.216,4.529-2.806,8.085-5.783,7.944c-2.979-0.142-5.218-3.929-5.002-8.458
			c0.216-4.528,2.806-8.085,5.783-7.943C627.839,136.963,630.078,140.749,629.862,145.278"/>
		<path fill="#4B4B5B" d="M641.947,100.831c-2.618-1.161-5.614-1.43-8.557-0.566c-0.918,0.296-1.836,0.674-2.726,1.187l-6.451,3.725
			l-420.58,242.841c-9.069,5.237-14.657,14.9-14.657,25.373v410.89c0,1.673,0.297,3.239,0.864,4.669
			c1.08,2.754,3.077,4.967,5.533,6.37l-13.198-6.667c-0.918-0.322-1.809-0.81-2.619-1.35l-0.135-0.054
			c-1.673-1.106-3.131-2.618-4.129-4.427c-1.026-1.809-1.62-3.913-1.62-6.208V365.751c0-10.473,5.587-20.163,14.657-25.399
			l427.03-246.54c4.265-2.482,9.097-2.105,12.768,0.135L641.947,100.831z"/>
		<path fill="#201D1E" d="M333.04,917.683c0.486-0.026,0.944-0.054,1.431-0.107c-0.351,0.054-0.729,0.081-1.106,0.107H333.04z"/>
		<path fill="#201D1E" d="M331.34,917.737c0.566-0.027,1.134-0.027,1.7-0.055c-0.351,0.027-0.701,0.055-1.054,0.055
			c-0.134,0-0.296,0.026-0.431,0.026C331.475,917.764,331.421,917.764,331.34,917.737"/>
		<path fill="#335176" d="M518.866,417.298l-4.821-0.397c0.429-2.166,0.172-4.256-0.873-5.759c-2.073-2.987-6.478-2.498-9.841,1.094
			c-3.36,3.59-4.402,8.919-2.328,11.906c2.077,2.989,6.481,2.5,9.842-1.089c0.827-0.885,1.519-1.876,2.054-2.912l4.921,0.41
			c0.705,0.061,1.508-0.62,1.799-1.519c0.174-0.54,0.12-1.037-0.105-1.362C519.366,417.459,519.146,417.32,518.866,417.298
			 M510.691,419.958c-0.3,0.483-0.648,0.942-1.047,1.368c-2.288,2.443-5.284,2.773-6.697,0.739c-1.41-2.03-0.703-5.656,1.584-8.1
			c2.284-2.44,5.284-2.773,6.694-0.742c0.642,0.923,0.844,2.176,0.659,3.498C511.739,417.8,511.331,418.925,510.691,419.958"/>
		<path fill="#4B4B5B" d="M632.345,1049.459v23.897c0,28.261-38.122,51.168-85.117,51.168c-46.994,0-85.096-22.907-85.096-51.168
			v-23.897c0,4.109,0.801,8.113,2.339,11.949c8.957,22.507,42.611,39.218,82.757,39.218s73.821-16.711,82.778-39.218
			C631.544,1057.572,632.345,1053.568,632.345,1049.459"/>
		<path fill="#DEE8F6" d="M632.345,1049.459c0,4.109-0.801,8.113-2.339,11.949c-8.957,22.507-42.633,39.218-82.778,39.218
			s-73.8-16.711-82.757-39.218c-1.538-3.836-2.339-7.84-2.339-11.949c0-28.26,38.102-51.167,85.096-51.167
			C594.223,998.292,632.345,1021.199,632.345,1049.459"/>
		<path fill="#4B4B5B" d="M608.295,1028.015v17.137c0,1.109-0.084,2.217-0.252,3.285c-2.762,18.747-28.937,33.414-60.803,33.414
			c-31.888,0-58.042-14.667-60.804-33.414c-0.167-1.068-0.251-2.176-0.251-3.285v-17.137c0,2.951,0.564,5.817,1.674,8.559
			c0.439,1.129,0.983,2.238,1.59,3.306c8.224,14.458,30.988,24.836,57.791,24.836c26.781,0,49.567-10.378,57.79-24.836
			c0.606-1.067,1.151-2.177,1.591-3.306C607.709,1033.832,608.295,1030.966,608.295,1028.015"/>
		<path fill="#DEE8F6" d="M608.281,1028.002c0,2.941-0.567,5.83-1.674,8.583c-6.424,16.141-30.581,28.125-59.381,28.125
			c-28.799,0-52.931-11.984-59.354-28.125c-1.106-2.753-1.7-5.642-1.7-8.583c0-17.354,20.055-31.904,47.019-35.71
			c4.508-0.675,9.205-0.999,14.036-0.999c8.366,0,16.33,0.999,23.591,2.834C592.814,999.688,608.281,1012.751,608.281,1028.002"/>
		<path fill="#E0E4EA" d="M522.128,1110.332c0,3.136-1.304,5.679-2.91,5.679c-1.608,0-2.911-2.543-2.911-5.679
			c0-3.137,1.303-5.68,2.911-5.68C520.824,1104.652,522.128,1107.195,522.128,1110.332"/>
		<path fill="#E0E4EA" d="M550.577,1113.351c0,3.137-1.799,5.679-4.019,5.679c-2.217,0-4.016-2.542-4.016-5.679
			s1.799-5.679,4.016-5.679C548.778,1107.672,550.577,1110.214,550.577,1113.351"/>
		<path fill="#E0E4EA" d="M578.17,1110.494c0,3.136-1.537,5.679-3.434,5.679c-1.895,0-3.432-2.543-3.432-5.679
			c0-3.137,1.537-5.68,3.432-5.68C576.633,1104.814,578.17,1107.357,578.17,1110.494"/>
		<path fill="#424252" d="M608.295,1051.742c0,2.93-0.586,5.816-1.674,8.558c-6.424,16.153-30.591,28.142-59.381,28.142
			c-28.812,0-52.957-11.988-59.381-28.142c-1.109-2.741-1.674-5.628-1.674-8.558c0-1.109,0.084-2.218,0.251-3.306
			c2.762,18.747,28.916,33.414,60.804,33.414c31.866,0,58.041-14.667,60.803-33.414
			C608.211,1049.524,608.295,1050.633,608.295,1051.742"/>
		<path fill="#201D1E" d="M537.381,1039.66c0.485-0.026,0.944-0.054,1.43-0.107c-0.351,0.054-0.729,0.081-1.106,0.107H537.381z"/>
		<path fill="#201D1E" d="M535.68,1039.715c0.566-0.027,1.134-0.027,1.701-0.055c-0.352,0.027-0.702,0.055-1.053,0.055
			c-0.136,0-0.297,0.026-0.432,0.026C535.815,1039.741,535.761,1039.741,535.68,1039.715"/>
		<polygon fill="#E7546C" points="570.81,890.993 570.81,954.313 557.447,946.599 552.527,943.744 535.643,978.305 534.246,981.158 
			517.026,971.197 535.582,933.904 515.994,922.607 		"/>
		<rect x="570.811" y="890.993" fill="#424252" width="6.315" height="63.319"/>
		<polygon fill="#424252" points="534.246,981.158 540.593,981.158 557.447,946.599 552.527,943.744 		"/>
		<path fill="#B7C2CF" d="M570.817,994.127v13.739l-13.361-7.719l-4.939-2.834l-16.869,34.548l-1.404,2.861l-17.22-9.96
			l16.167-32.471c4.508-0.675,9.205-0.999,14.036-0.999C555.594,991.293,563.557,992.292,570.817,994.127"/>
		<path fill="#4B4B5B" d="M1054.402,364.78v315.934c0,3.995-2.456,7.153-5.694,8.476l-12.497,5.857
			c1.754-1.62,2.888-3.941,2.888-6.667V372.446c0-9.906-5.263-19.057-13.847-23.996L721.194,172.898l-3.293-1.916l-1.539-0.891
			c-2.348-1.35-4.912-1.539-7.206-0.864l13.279-6.748h0.027c2.672-1.565,6.127-1.808,9.204-0.027l308.89,178.332
			C1049.14,345.751,1054.402,354.901,1054.402,364.78"/>
		<path fill="#DEE8F6" d="M1039.099,372.445V688.38c0,2.726-1.134,5.047-2.888,6.667h-0.027c-2.78,2.563-7.045,3.374-10.77,1.214
			L715.662,517.362c-8.099-4.67-13.065-13.28-13.065-22.619v-316.69c0-4.319,2.861-7.666,6.479-8.799l0.081-0.027
			c2.294-0.675,4.858-0.486,7.206,0.864l1.539,0.89l3.293,1.917l304.058,175.552C1033.836,353.389,1039.099,362.54,1039.099,372.445
			"/>
		<path fill="#EA6B80" d="M720.323,209.662l-0.011,9.188c-0.003,3.058,1.626,5.884,4.273,7.412l60.281,34.803
			c2.793,1.613,6.284-0.403,6.284-3.628v-7.798c0-3.32-1.771-6.389-4.646-8.049l-60.729-35.072
			C723.354,205.12,720.327,206.866,720.323,209.662"/>
		<path fill="#B7C2CF" d="M720.317,255.236L720.317,255.236c-0.006,5.697,3.03,10.964,7.964,13.813l123.889,71.549
			c4.346,2.51,9.777-0.634,9.766-5.653c-0.014-5.686-3.053-10.935-7.977-13.778l-123.894-71.55
			C725.736,247.116,720.323,250.237,720.317,255.236"/>
		<polygon fill="#7F7F8B" points="720.331,295.09 720.331,315.522 791.127,356.422 791.173,335.989 		"/>
		<path fill="#4B4B5B" d="M1102.288,456.894v224.028c0,0.891-0.162,1.755-0.433,2.511c-0.485,1.431-1.377,2.646-2.537,3.509v0.026
			c-2.294,1.782-5.587,2.24-8.475,0.567l-122.163-70.528c-4.995-2.888-8.098-8.206-8.098-14.009V380.48
			c0-3.266,1.97-5.911,4.588-7.071c1.107-0.514,2.295-0.756,3.536-0.703c1.188,0.028,2.429,0.352,3.59,1.026l3.617,2.079
			l119.328,68.882C1099.615,447.204,1102.288,451.873,1102.288,456.894"/>
		<path fill="#B7C2CF" d="M791.167,379.588c-0.458,0-0.922-0.116-1.347-0.361l-70.863-40.913c-1.291-0.746-1.734-2.396-0.988-3.687
			c0.746-1.293,2.398-1.735,3.688-0.989l70.863,40.913c1.292,0.746,1.734,2.396,0.988,3.687
			C793.007,379.105,792.101,379.588,791.167,379.588"/>
		<path fill="#B7C2CF" d="M808.859,410.275c-0.459,0-0.923-0.116-1.347-0.361l-88.556-51.118c-1.291-0.746-1.734-2.396-0.988-3.688
			c0.746-1.291,2.398-1.732,3.688-0.988l88.556,51.118c1.291,0.745,1.734,2.396,0.988,3.687
			C810.699,409.792,809.792,410.275,808.859,410.275"/>
		<path fill="#B7C2CF" d="M826.569,440.949c-0.458,0-0.922-0.116-1.347-0.363l-106.266-61.373c-1.291-0.745-1.734-2.396-0.988-3.687
			c0.746-1.293,2.398-1.738,3.688-0.987l106.266,61.374c1.292,0.744,1.734,2.396,0.988,3.686
			C828.409,440.465,827.503,440.949,826.569,440.949"/>
		<polygon fill="#7F7F8B" points="720.343,417.806 720.343,438.238 791.139,479.138 791.185,458.705 		"/>
		<path fill="#B7C2CF" d="M791.181,502.304c-0.459,0-0.923-0.116-1.347-0.361l-70.863-40.913c-1.292-0.746-1.734-2.396-0.988-3.687
			c0.746-1.292,2.398-1.733,3.688-0.989l70.862,40.913c1.292,0.746,1.735,2.396,0.989,3.687
			C793.021,501.821,792.113,502.304,791.181,502.304"/>
		<path fill="#B7C2CF" d="M808.87,532.991c-0.459,0-0.923-0.116-1.348-0.361l-88.552-51.118c-1.292-0.746-1.734-2.396-0.988-3.687
			c0.746-1.293,2.398-1.736,3.688-0.989l88.552,51.118c1.292,0.746,1.734,2.396,0.989,3.687
			C810.71,532.508,809.803,532.991,808.87,532.991"/>
		<path fill="#B7C2CF" d="M826.58,563.665c-0.458,0-0.922-0.116-1.347-0.362l-106.263-61.374c-1.292-0.745-1.734-2.396-0.988-3.686
			c0.746-1.292,2.398-1.738,3.688-0.988l106.263,61.374c1.292,0.745,1.734,2.396,0.988,3.686
			C828.42,563.181,827.514,563.665,826.58,563.665"/>
		<path fill="#B7C2CF" d="M950.572,532.978c-0.459,0-0.923-0.116-1.347-0.361L718.957,399.693c-1.291-0.745-1.734-2.396-0.988-3.687
			c0.746-1.294,2.398-1.733,3.688-0.988l230.268,132.923c1.292,0.746,1.735,2.396,0.989,3.687
			C952.412,532.495,951.505,532.978,950.572,532.978"/>
		<path fill="#335176" d="M843.199,329.611c-0.131,0.189-0.163,0.479-0.063,0.795c0.171,0.525,0.64,0.922,1.052,0.886l2.873-0.239
			c0.313,0.605,0.715,1.184,1.198,1.7c1.962,2.095,4.534,2.381,5.746,0.636c1.211-1.744,0.604-4.855-1.358-6.951
			c-1.964-2.097-4.535-2.383-5.747-0.639c-0.609,0.877-0.759,2.097-0.509,3.362l-2.814,0.232
			C843.414,329.406,843.285,329.487,843.199,329.611 M847.653,329.056c-0.108-0.772,0.01-1.504,0.385-2.042
			c0.823-1.186,2.574-0.992,3.908,0.433c1.336,1.426,1.748,3.544,0.925,4.729c-0.825,1.187-2.574,0.995-3.91-0.432
			c-0.232-0.249-0.437-0.517-0.611-0.798C847.977,330.343,847.737,329.685,847.653,329.056"/>
		<path fill="#335176" d="M1014.686,367.732c0.148,3.103,1.922,5.54,3.962,5.442c2.04-0.097,3.574-2.691,3.427-5.794
			s-1.922-5.539-3.962-5.442S1014.538,364.629,1014.686,367.732"/>
		<path fill="#EA6B80" d="M999.58,359.003c0.146,3.103,1.921,5.539,3.962,5.442c2.04-0.097,3.574-2.692,3.426-5.794
			c-0.147-3.103-1.921-5.54-3.962-5.442C1000.966,353.307,999.432,355.9,999.58,359.003"/>
		<path fill="#4B4B5B" d="M985.312,351.492c0.147,3.103,1.922,5.539,3.962,5.442c2.041-0.097,3.575-2.692,3.427-5.794
			c-0.147-3.103-1.922-5.54-3.962-5.442C986.698,345.795,985.164,348.389,985.312,351.492"/>
		<path fill="#E7546C" d="M978.308,468.422v65.075c0,4.525,2.414,8.707,6.334,10.968l90.604,52.283
			c4.147,2.393,9.33-0.601,9.33-5.388l-0.002-64.22c0-4.214-2.249-8.108-5.898-10.216l-92.188-53.225
			C982.852,461.601,978.308,464.225,978.308,468.422"/>
		<path fill="#335176" d="M978.308,562.017v7.422c0,1.318,0.703,2.536,1.844,3.195l16.585,9.573
			c1.271,0.733,2.861-0.184,2.861-1.652v-6.895c0-1.292-0.689-2.485-1.809-3.131l-17.114-9.879
			C979.623,560.042,978.308,560.802,978.308,562.017"/>
		<path fill="#B7C2CF" d="M1031.67,618.926c-0.229,0-0.461-0.058-0.675-0.182l-53.363-30.807c-0.646-0.373-0.867-1.198-0.493-1.844
			c0.372-0.645,1.2-0.862,1.843-0.494l53.363,30.81c0.646,0.37,0.867,1.196,0.493,1.842
			C1032.59,618.684,1032.134,618.926,1031.67,618.926"/>
		<path fill="#B7C2CF" d="M1053.559,641.84c-0.229,0-0.461-0.058-0.675-0.182l-75.252-43.436c-0.646-0.373-0.867-1.198-0.493-1.844
			c0.372-0.645,1.2-0.864,1.843-0.494l75.252,43.438c0.646,0.371,0.867,1.197,0.493,1.843
			C1054.479,641.598,1054.022,641.84,1053.559,641.84"/>
		<path fill="#B7C2CF" d="M1066.864,659.804c-0.229,0-0.461-0.059-0.675-0.183l-88.558-51.146c-0.646-0.371-0.868-1.196-0.493-1.842
			c0.371-0.646,1.2-0.863,1.843-0.494l88.558,51.147c0.646,0.372,0.867,1.196,0.493,1.843
			C1067.784,659.561,1067.328,659.804,1066.864,659.804"/>
		<polygon fill="#E0E4EA" points="984.709,435.12 985.044,437.867 985.616,435.906 989.594,424.761 991.73,426.021 995.253,441.585 
			995.748,444.217 996.191,441.875 999.349,430.511 1001.893,432.011 996.98,448.447 994.67,447.087 990.909,430.782 
			990.622,429.14 990.303,430.423 986.012,441.98 983.705,440.621 979.327,418.708 981.857,420.201 		"/>
		<path fill="#E0E4EA" d="M1009.563,456.132c-1.933-1.139-3.498-2.701-4.692-4.686c-1.196-1.983-1.779-4.038-1.75-6.163l0.004-0.448
			c0.02-1.412,0.31-2.517,0.863-3.31c0.556-0.791,1.326-1.215,2.303-1.271c0.979-0.055,2.036,0.251,3.172,0.92
			c1.854,1.093,3.283,2.553,4.297,4.379c1.009,1.826,1.502,3.877,1.471,6.151l-0.014,1.015l-9.66-5.696
			c0.013,1.426,0.408,2.803,1.187,4.133c0.771,1.328,1.766,2.349,2.979,3.064c0.86,0.508,1.595,0.764,2.198,0.764
			c0.601,0.001,1.131-0.156,1.586-0.472l1.474,2.037C1013.76,457.68,1011.955,457.54,1009.563,456.132 M1009.434,443.176
			c-0.985-0.581-1.815-0.71-2.493-0.387c-0.678,0.321-1.104,1.08-1.278,2.28l7.144,4.211l0.002-0.185
			c-0.053-1.278-0.374-2.436-0.962-3.467C1011.258,444.593,1010.455,443.777,1009.434,443.176"/>
		<polygon fill="#E0E4EA" points="1020.597,462.371 1018.16,460.934 1018.436,440.702 1020.871,442.138 		"/>
		<path fill="#E0E4EA" d="M1030.244,466.318c0.87,0.513,1.635,0.699,2.291,0.554c0.658-0.142,1.025-0.591,1.105-1.338l2.308,1.36
			c-0.054,0.79-0.347,1.401-0.872,1.835c-0.53,0.431-1.229,0.611-2.102,0.539c-0.873-0.072-1.789-0.39-2.757-0.961
			c-1.94-1.144-3.477-2.703-4.604-4.674c-1.131-1.97-1.682-4.08-1.65-6.328l0.005-0.409c0.019-1.388,0.29-2.471,0.814-3.251
			c0.524-0.78,1.269-1.187,2.228-1.223c0.962-0.035,2.092,0.331,3.396,1.098c1.6,0.944,2.92,2.206,3.967,3.786
			c1.046,1.583,1.595,3.158,1.642,4.727l-2.306-1.36c-0.059-0.963-0.396-1.928-1.015-2.89c-0.622-0.963-1.393-1.716-2.317-2.261
			c-1.235-0.729-2.203-0.849-2.896-0.359c-0.693,0.489-1.052,1.576-1.073,3.262l-0.008,0.461c-0.021,1.642,0.298,3.107,0.965,4.393
			C1028.027,464.566,1028.989,465.579,1030.244,466.318"/>
		<path fill="#E0E4EA" d="M1038.083,465.363c0.021-1.396,0.312-2.49,0.875-3.281c0.564-0.791,1.342-1.202,2.328-1.231
			c0.988-0.029,2.111,0.328,3.368,1.069c1.943,1.145,3.503,2.742,4.685,4.793c1.181,2.051,1.755,4.193,1.727,6.423l-0.003,0.171
			c-0.019,1.388-0.304,2.477-0.847,3.265c-0.548,0.789-1.317,1.199-2.313,1.231c-1.002,0.031-2.139-0.331-3.422-1.088
			c-1.932-1.138-3.492-2.735-4.671-4.784c-1.184-2.052-1.758-4.185-1.727-6.397V465.363z M1040.532,467.098
			c-0.021,1.582,0.326,3.068,1.049,4.458c0.72,1.389,1.695,2.444,2.926,3.17c1.239,0.732,2.228,0.826,2.971,0.285
			c0.743-0.54,1.126-1.684,1.149-3.432c0.021-1.563-0.33-3.048-1.06-4.457c-0.73-1.408-1.711-2.475-2.941-3.2
			c-1.205-0.71-2.181-0.802-2.932-0.28S1040.555,465.316,1040.532,467.098"/>
		<path fill="#E0E4EA" d="M1056.514,469.178l0.045,1.618c1.059-0.614,2.479-0.396,4.257,0.65c1.995,1.177,3.342,2.743,4.04,4.694
			c0.482-0.404,1.107-0.594,1.875-0.567c0.766,0.026,1.668,0.345,2.707,0.956c3.126,1.844,4.694,4.437,4.699,7.779l-0.129,9.55
			l-2.438-1.438l0.127-9.405c0.016-1.019-0.206-1.918-0.667-2.698c-0.459-0.779-1.236-1.492-2.336-2.14
			c-0.904-0.533-1.658-0.706-2.264-0.519c-0.606,0.187-0.965,0.71-1.07,1.566l-0.129,9.458l-2.451-1.446l0.126-9.339
			c0.029-2.072-0.973-3.707-3.005-4.904c-1.598-0.942-2.7-0.905-3.306,0.11l-0.142,10.405l-2.441-1.438l0.191-14.252
			L1056.514,469.178z"/>
		<path fill="#E0E4EA" d="M1083.603,499.778c-1.933-1.139-3.498-2.702-4.692-4.684c-1.196-1.984-1.779-4.038-1.75-6.165l0.005-0.447
			c0.019-1.414,0.307-2.516,0.859-3.309c0.557-0.794,1.326-1.215,2.304-1.273c0.98-0.055,2.039,0.251,3.171,0.921
			c1.854,1.092,3.284,2.553,4.3,4.379c1.01,1.827,1.5,3.878,1.468,6.152l-0.013,1.015l-9.661-5.696
			c0.017,1.425,0.411,2.802,1.189,4.131c0.771,1.33,1.766,2.351,2.979,3.065c0.858,0.508,1.595,0.763,2.195,0.763
			c0.604,0.002,1.131-0.157,1.59-0.47l1.473,2.037C1087.799,501.325,1085.992,501.188,1083.603,499.778 M1083.471,486.823
			c-0.986-0.582-1.813-0.709-2.491-0.388c-0.68,0.322-1.104,1.081-1.281,2.281l7.144,4.211l0.003-0.184
			c-0.051-1.281-0.372-2.436-0.963-3.469C1085.297,488.241,1084.49,487.424,1083.471,486.823"/>
		<path fill="#424252" d="M1109.953,451.765l-0.027,224.055c0,2.779-1.43,5.048-3.454,6.37c0,0-0.027,0.027-0.082,0.054
			c-0.054,0.055-0.188,0.108-0.323,0.217c-1.484,0.971-6.506,4.291-6.748,4.507v-0.026c1.16-0.864,2.052-2.078,2.537-3.51
			c0.271-0.755,0.433-1.619,0.433-2.51V456.893c0-5.02-2.673-9.69-7.046-12.2l-119.328-68.882l-3.617-2.078
			c-1.161-0.675-2.402-0.999-3.59-1.026c-1.241-0.054-2.429,0.189-3.536,0.702l6.235-4.292l0.108-0.081
			c2.348-1.673,5.587-2.078,8.448-0.432l122.919,70.961C1107.254,442.075,1109.953,446.744,1109.953,451.765"/>
		<path fill="#E0E4EA" d="M1087.021,457.945c0.099,2.066,1.28,3.689,2.639,3.625c1.359-0.065,2.381-1.793,2.282-3.859
			c-0.099-2.067-1.279-3.69-2.639-3.625C1087.943,454.15,1086.922,455.878,1087.021,457.945"/>
		<path fill="#EA6B80" d="M1076.959,452.131c0.099,2.066,1.279,3.689,2.639,3.625c1.359-0.065,2.381-1.793,2.282-3.859
			c-0.099-2.067-1.28-3.69-2.639-3.625C1077.882,448.336,1076.859,450.064,1076.959,452.131"/>
		<path fill="#4B4B5B" d="M1067.455,447.128c0.099,2.066,1.28,3.689,2.64,3.625c1.358-0.065,2.382-1.793,2.282-3.859
			c-0.099-2.067-1.28-3.69-2.64-3.625C1068.379,443.333,1067.357,445.062,1067.455,447.128"/>
		<path fill="#FDDCC6" d="M498.459,442.117c0,0-0.401-1.37-1.489-2.458c-1.087-1.087-3.67,0.907-6.661-4.531
			c-2.992-5.438,7.205-9.517,6.752-13.233c-0.453-3.715-4.861-13.006-2.953-13.685c1.911-0.68,13.248,24.404,14.58,29.467
			c1.334,5.064-4.104,8.462-4.104,8.462L498.459,442.117z"/>
		<path fill="#4B4B5B" d="M594.029,793.498c0,0,1.601,4.988,1.957,10.336c0.355,5.348,0.6,8.827-2.99,10.854
			c-3.591,2.027-38.19-14.947-35.906-19.45c2.285-4.504,22.924-3.33,22.924-3.33L594.029,793.498z"/>
		<path fill="#AAB6C6" d="M578.625,792.658c-0.481-0.326-0.848-0.608-1.079-0.805c-0.192-0.152-0.289-0.239-0.289-0.239
			s-0.038-0.695-0.135-2.022c-0.713-10.963-4.161-64.299-5.433-100.059v-0.065c-0.309-8.309-0.481-15.661-0.481-21.316
			c0.019-18.968,1.561-32.105,2.851-39.828c0.963-5.655,1.792-8.418,1.792-8.418l8.246-0.392l-4.662,8.57l13.063-0.608
			c0,0,1.425,8.983,0,26.146c-1.426,17.141-10.153,39.784-9.325,75.631C583.673,751.025,580.898,776.236,578.625,792.658"/>
		<path fill="#FDDCC6" d="M609.778,643.397c-1.349,16.423-9.729,38.131-8.939,72.479c0.79,34.345-6.917,77.631-6.917,77.631
			s-2.35,2.176-7.359,2.066c-3.159-0.087-6.012-1.609-7.706-2.763c2.119-9.767,8.997-43.155,7.648-60.97
			c-1.618-21.013,6.416-58.36,8.997-71.955c2.602-13.594,0-33.345,0-33.345l-5.742-7.288l20.019-0.913
			C609.778,618.34,611.146,626.953,609.778,643.397"/>
		<path fill="#4B4B5B" d="M575.955,810.254c0,0,1.985,6.19,2.429,12.827c0.442,6.637,0.744,10.955-3.711,13.47
			c-4.456,2.516-47.395-18.55-44.559-24.138c2.835-5.589,28.446-4.132,28.446-4.132L575.955,810.254z"/>
		<path fill="#FDDCC6" d="M592.497,653.621c-1.426,17.141-10.153,39.784-9.325,75.631c0.501,21.773-2.273,46.984-4.547,63.406
			c-0.115,0.979-0.251,1.915-0.366,2.807c-0.02,0.065-0.02,0.108-0.02,0.108c-1.271,8.983-2.292,14.683-2.292,14.683
			s-2.447,2.284-7.688,2.153c-5.24-0.13-9.69-4.133-9.69-4.133s-6.339-94.511-6.319-128.814c0.018-34.303,4.835-50.355,4.835-50.355
			l16.974-0.783l5.375-0.239l13.063-0.609C592.497,627.475,593.922,636.459,592.497,653.621"/>
		<path fill="#E43F5A" d="M603.29,506.832c0,0,15.024,2.951,16.739,19.987c1.715,17.036,9.832,35.246,5.373,41.919
			c-4.459,6.674-11.204,4.849-11.204,4.849s-14.175-49.168-14.063-49.511C600.249,523.731,603.29,506.832,603.29,506.832"/>
		<path fill="#FBBC92" d="M595.502,659.886c-2.581,13.595-10.615,50.942-8.997,71.955c1.349,17.814-5.529,51.203-7.649,60.97
			c-0.076-0.043-0.153-0.087-0.23-0.152c2.273-16.422,5.048-41.633,4.547-63.406c-0.828-35.847,7.899-58.49,9.325-75.631
			c1.31-15.771,0.212-24.645,0.019-25.972c1.021-0.349,2.023-0.739,2.986-1.109C595.502,626.54,598.104,646.291,595.502,659.886"/>
		<path fill="#FCCDAD" d="M569.726,497.442c0,0,2.054,2.706,1.597,7.695c-0.457,4.989-0.664,10.362-0.664,10.362l15.413,2.401
			c0,0,14.179-11.686,14.064-12.028c-0.114-0.344-3.836-13.852-4.091-16.347c-0.256-2.495-16.719-6.154-16.719-6.154
			L569.726,497.442z"/>
		<path fill="#FDDCC6" d="M567.51,465.021c0,0-3.421,8.315-4.664,14.474c-1.912,9.474-0.775,18.249-0.775,18.249
			s8.314,1.037,20.224-3.614s12-29.288,12-29.288s-7.743-7.78-8.371-7.822C585.296,456.978,567.51,465.021,567.51,465.021"/>
		<path fill="#1B1B2F" d="M567.51,465.021c0,0,11.978,4.02,10.033,12.042s-8.361,21.971,8.628,23.922
			c16.99,1.951,30.522-23.643,27.569-34.361s-13.103-16.056-17.707-17.148C591.429,448.382,576.535,445.025,567.51,465.021"/>
		<path fill="#335176" d="M629.386,678.875c0,0-13,29.673-46.462,20.403c-29.942-8.295-39.798-4.488-39.798-4.488
			s-2.993-15.342,1.488-40.139c4.458-24.819,7.161-25.545,7.161-25.545s26.776-12.137,45.244-13.79
			c6.417-0.565,11.812,0.13,14.748,3.045C623.122,629.65,629.386,678.875,629.386,678.875"/>
		<path fill="#7F7F8B" d="M629.386,678.875c0,0-3.001-18.445-12.028-31.758c-9.027-13.312-21.86-20.577-21.86-20.577l1.522-11.224
			c6.417-0.565,11.812,0.13,14.748,3.045C623.122,629.65,629.386,678.875,629.386,678.875"/>
		<path fill="#E7546C" d="M617.366,586.771c0,9.983-2.566,26.972-7.156,31.583c-2.022,2.066-8.439,5.33-16.618,8.179
			c-1.088,0.37-2.219,0.762-3.372,1.109c-9.614,3.046-21.012,5.308-30.54,4.547c-15.205-1.196-17.662-16.662-16.183-28.169
			c0.196-1.545,0.478-3.002,0.783-4.351c0.305-1.327,0.651-2.544,1.044-3.61c1.283-3.611,1.871-11.616,2.219-20.926
			c0.174-4.938,0.305-10.266,0.413-15.487c0,0,2.306-6.373,9.375-6.917c6.635-0.5,9.767-6.438,10.137-7.178
			c-0.718,1.001-1.609,1.849-2.632,2.501c-1.806,1.154-4.024,1.697-6.33,1.327c-2.893-0.478-6.352-2.023-10.049-5.72
			c0.087-1.741,0.174-3.394,0.282-4.938c0.218-2.828,0.479-5.264,0.827-7.135c0.152-0.848,0.326-1.566,0.521-2.153
			c0.957-2.936,4.742-6.308,9.571-9.571c6.786-4.612,15.639-9.027,21.577-11.789c6.504-3.046,13.922-3.872,20.816-1.849
			c5.002,1.457,9.918,4.437,11.985,10.419c3.351,9.701,1.784,47.462,0.914,54.118C613.995,578.026,617.366,576.765,617.366,586.771"
			/>
		<path fill="#1B1B2F" d="M612.127,518.174c0,0-13.745-1.065-14.188-11.145c-0.442-10.079,8.549-18.06,7-23.691
			s-3.126-5.87-3.126-5.87s-0.991-0.857-0.342-3.051c0.666-2.187,2.149-2.555,2.149-2.555s14.312,0.44,13.728,13.226
			c-0.601,12.78-7.614,17.131-8.466,22.277C608.025,512.528,612.127,518.174,612.127,518.174"/>
		<path fill="#E43F5A" d="M567.468,545.55c-0.37,0.74-3.502,6.678-10.137,7.178c-7.069,0.544-9.375,6.917-9.375,6.917
			c0.131-5.634,0.262-11.158,0.501-15.987c3.697,3.698,7.156,5.242,10.049,5.721c2.306,0.369,4.525-0.174,6.33-1.328
			C565.858,547.399,566.75,546.551,567.468,545.55"/>
		<path fill="#39394A" d="M585.865,580.122V605c0,18.227-19.355,29.729-35.253,21.373c11.311-1.513,21.013-11.047,21.013-23.942
			v-24.326c3.506-0.216,6.604-1.009,9.005-1.825c1.081-0.36,2.186-0.216,3.098,0.288
			C584.977,577.216,585.865,578.537,585.865,580.122"/>
		<path fill="#4B4B5B" d="M571.625,578.104v24.326c0,12.896-9.702,22.43-21.013,23.942c-0.288-0.145-0.601-0.313-0.889-0.48
			l-14.816-8.573c-7.47-4.298-12.055-12.247-12.055-20.868v-45.387c0-2.281,1.656-3.746,3.505-3.986
			c1.105-0.168,2.306,0.144,3.219,1.008c0.216,0.192,0.408,0.409,0.576,0.649c6.052,8.525,15.104,19.715,24.23,25.239
			c0.984,0.6,1.969,1.128,2.953,1.584C562.379,577.864,567.326,578.416,571.625,578.104"/>
		<path fill="#4B4B5B" d="M574.015,578.186l-4.801-0.146c0.348-11.419-0.224-42.717-6.957-50.296
			c-0.64-0.723-1.097-0.721-1.473-0.652c-5.572,0.929-15.916,20.137-21.482,33.479l-4.434-1.848
			c2.408-5.775,14.938-34.667,25.125-36.369c1.556-0.259,3.823-0.086,5.854,2.2C575.062,534.927,574.149,573.788,574.015,578.186"/>
		<path fill="#E7546C" d="M569.164,540.439c-0.043,1.871-0.652,3.611-1.652,5.046c0,0-0.022,0.022-0.044,0.065
			c-0.718,1.001-1.609,1.849-2.632,2.502c-1.806,1.153-4.025,1.697-6.33,1.327c-2.893-0.479-6.352-2.023-10.049-5.721
			c-0.152-0.131-0.283-0.282-0.436-0.435c-1.218-1.262-2.437-2.545-3.654-3.85c-11.376-12.203-22.121-25.689-28.43-41.329
			c-5.742-14.204-10.463-28.929-15.727-43.308c-1.196-3.306-2.414-6.612-3.61-9.918c0,0,2.914-5.786,8.353-6.874
			c5.438-1.088,7.613,1.088,7.613,1.088c5.133,12.899,9.962,25.928,15.9,38.501c4.133,8.744,9.723,16.661,16.292,23.753
			c5.525,6.003,10.267,12.093,14.9,18.575c1.457,2.067,2.914,4.155,4.394,6.287c2.153,3.132,3.502,5.96,4.241,8.461
			C568.99,536.806,569.208,538.764,569.164,540.439"/>
		<path fill="#5E7592" d="M583.752,576.592c0,0-5.211,5.859-12.127,11.19c-7.612,5.884-17.29,11.095-24.398,7.204
			c-13.592-7.468-20.869-47.909-20.869-47.909l1.332-0.043c1.652,0.609,2.295,1.46,2.463,1.701
			c6.052,8.524,15.104,19.715,24.23,25.238c0.984,0.601,1.969,1.129,2.953,1.585c5.043,2.306,9.99,2.858,14.289,2.546
			c3.506-0.216,6.604-1.009,9.005-1.824c1.081-0.361,2.185-0.217,3.098,0.287L583.752,576.592z"/>
		<path fill="#39394A" d="M550.612,586.227c0,1.619-0.755,2.932-1.687,2.932s-1.688-1.313-1.688-2.932
			c0-1.618,0.756-2.931,1.688-2.931S550.612,584.608,550.612,586.227"/>
		<polygon fill="#C0CAD5" points="1056.301,775.724 1056.301,821.198 1030.037,806.04 1016.84,753.011 		"/>
		<polygon fill="#5E7592" points="1095.692,752.941 1082.565,806.04 1056.301,821.198 1056.301,775.724 		"/>
		<polygon fill="#4B4B5B" points="1016.84,753.011 1056.3,730.237 1095.692,752.941 1056.301,775.724 		"/>
		<path fill="#335176" d="M1052.238,757.791c0,0-1.141-26.999-15.591-44.492c-14.45-17.492-32.703-42.21-18.253-46.393
			c14.449-4.184,32.703,16.352,39.168,38.027c6.464,21.675-1.015,52.857-1.015,52.857H1052.238z"/>
		<path fill="#E7EEF9" d="M1054.646,758.245c-0.25,0-0.453-0.202-0.454-0.453c-0.001-0.072-0.044-7.383-1.044-16.886
			c-0.923-8.756-2.869-21.217-6.907-30.854c-7.729-18.452-17.301-28.319-17.396-28.416c-0.177-0.18-0.175-0.468,0.005-0.644
			s0.468-0.174,0.644,0.006c0.097,0.099,9.785,10.077,17.587,28.702c4.081,9.742,6.045,22.3,6.974,31.12
			c1.004,9.546,1.048,16.895,1.048,16.968c0.001,0.251-0.201,0.455-0.453,0.456H1054.646z"/>
		<path fill="#EA6B80" d="M1061.566,757.791c0,0,0.92-21.767,12.569-35.868c11.649-14.103,26.364-34.028,14.715-37.401
			c-11.649-3.372-26.364,13.183-31.576,30.657c-5.212,17.474,0.817,42.612,0.817,42.612H1061.566z"/>
		<path fill="#E7EEF9" d="M1059.625,758.245h-0.002c-0.251-0.001-0.453-0.205-0.453-0.456c0.001-0.06,0.035-5.988,0.846-13.688
			c0.75-7.116,2.334-17.249,5.628-25.112c6.296-15.031,14.118-23.088,14.197-23.167c0.175-0.18,0.462-0.183,0.642-0.006
			c0.18,0.176,0.183,0.464,0.006,0.644c-0.076,0.078-7.782,8.023-14.006,22.881c-6.228,14.864-6.402,38.219-6.402,38.452
			C1060.079,758.043,1059.875,758.245,1059.625,758.245"/>
		<polygon fill="#C0CAD5" points="702.742,616.716 702.742,646.709 685.42,636.711 676.715,601.736 		"/>
		<polygon fill="#5E7592" points="728.724,601.688 720.065,636.711 702.742,646.71 702.742,616.716 		"/>
		<polygon fill="#4B4B5B" points="676.715,601.735 702.742,586.715 728.724,601.688 702.742,616.716 		"/>
		<path fill="#4B4B5B" d="M700.063,604.888c0,0-0.752-17.808-10.283-29.346c-9.531-11.537-21.57-27.84-12.039-30.599
			c9.531-2.759,21.57,10.785,25.834,25.081s-0.669,34.864-0.669,34.864H700.063z"/>
		<path fill="#E7EEF9" d="M701.651,605.188c-0.165,0-0.299-0.134-0.3-0.299c0-0.048-0.028-4.87-0.688-11.138
			c-0.608-5.775-1.893-13.994-4.556-20.351c-5.1-12.17-11.411-18.678-11.475-18.742c-0.116-0.118-0.114-0.308,0.004-0.424
			c0.118-0.117,0.308-0.115,0.424,0.003c0.064,0.065,6.454,6.647,11.6,18.931c2.692,6.426,3.987,14.709,4.6,20.527
			c0.662,6.296,0.691,11.143,0.691,11.191C701.952,605.052,701.818,605.187,701.651,605.188L701.651,605.188z"/>
		<path fill="#EA6B80" d="M706.216,604.888c0,0,0.606-14.356,8.29-23.658c7.684-9.301,17.39-22.444,9.706-24.668
			c-7.685-2.225-17.39,8.694-20.827,20.22s0.539,28.106,0.539,28.106H706.216z"/>
		<path fill="#E7EEF9" d="M704.935,605.188L704.935,605.188c-0.167-0.001-0.3-0.136-0.3-0.301c0.001-0.039,0.023-3.95,0.558-9.028
			c0.494-4.694,1.539-11.378,3.712-16.564c4.153-9.914,9.313-15.228,9.364-15.279c0.115-0.119,0.305-0.12,0.424-0.004
			c0.118,0.116,0.12,0.306,0.004,0.424c-0.051,0.052-5.134,5.292-9.239,15.092c-4.106,9.806-4.222,25.208-4.223,25.362
			C705.234,605.054,705.1,605.188,704.935,605.188"/>
	</g>
</g>
</svg>
